<svg width="128" height="128" viewBox="0 0 128 128" fill="none" xmlns="http://www.w3.org/2000/svg">
  <!-- Shield shape -->
  <path d="M64 10L20 30V60C20 87.6 37.2 112.4 64 118C90.8 112.4 108 87.6 108 60V30L64 10Z" fill="#E0234E"/>

  <!-- Inner shield -->
  <path d="M64 20L30 36V60C30 82.8 43.2 103.2 64 108C84.8 103.2 98 82.8 98 60V36L64 20Z" fill="#EA5455"/>

  <!-- Lock body -->
  <rect x="50" y="64" width="28" height="24" rx="2" fill="white"/>

  <!-- Lock shackle -->
  <path d="M56 64V54C56 49.6 59.6 46 64 46C68.4 46 72 49.6 72 54V64" stroke="white" stroke-width="4" stroke-linecap="round"/>

  <!-- Keyhole -->
  <circle cx="64" cy="72" r="3" fill="#E0234E"/>
  <rect x="62.5" y="72" width="3" height="8" rx="1.5" fill="#E0234E"/>
</svg>
